<svg
    xmlns="http://www.w3.org/2000/svg"
    viewBox="0 0 24 24"
    id="vector">
    <path
        id="path"
        d="M 8 22.36 C 9.062 23.405 10.492 23.994 11.982 24 C 13.472 24.006 14.906 23.427 15.976 22.39 L 19.783 18.853 C 21.841 16.777 22.997 13.969 22.997 11.046 C 22.997 8.122 21.841 5.314 19.783 3.238 C 18.421 1.867 16.719 0.879 14.853 0.377 C 12.986 -0.125 11.019 -0.125 9.152 0.377 C 7.286 0.879 5.584 1.867 4.222 3.238 C 2.159 5.323 1.005 8.142 1.013 11.075 C 1.021 14.007 2.19 16.82 4.264 18.894 Z M 6.346 5.354 C 7.336 4.357 8.572 3.639 9.929 3.274 C 11.285 2.909 12.715 2.909 14.071 3.274 C 15.428 3.639 16.664 4.357 17.654 5.354 L 17.654 5.354 C 19.152 6.859 19.997 8.895 20.006 11.018 C 20.015 13.14 19.185 15.183 17.7 16.7 L 13.9 20.225 C 13.382 20.718 12.693 20.991 11.977 20.986 C 11.262 20.98 10.577 20.696 10.067 20.195 L 6.346 16.737 C 4.846 15.224 4.003 13.177 4.003 11.046 C 4.003 8.914 4.846 6.867 6.346 5.354 Z M 7 11 C 7 10.602 7.158 10.221 7.439 9.939 C 7.721 9.658 8.102 9.5 8.5 9.5 L 10.5 9.5 L 10.5 7.5 C 10.5 7.102 10.658 6.721 10.939 6.439 C 11.221 6.158 11.602 6 12 6 C 12.398 6 12.779 6.158 13.061 6.439 C 13.342 6.721 13.5 7.102 13.5 7.5 L 13.5 9.5 L 15.5 9.5 C 15.897 9.501 16.277 9.66 16.558 9.941 C 16.838 10.222 16.995 10.603 16.995 11 C 16.995 11.397 16.838 11.778 16.558 12.059 C 16.277 12.34 15.897 12.499 15.5 12.5 L 13.5 12.5 L 13.5 14.5 C 13.5 14.898 13.342 15.279 13.061 15.561 C 12.779 15.842 12.398 16 12 16 C 11.602 16 11.221 15.842 10.939 15.561 C 10.658 15.279 10.5 14.898 10.5 14.5 L 10.5 12.5 L 8.5 12.5 C 8.237 12.5 7.978 12.431 7.75 12.299 C 7.522 12.167 7.333 11.978 7.201 11.75 C 7.069 11.522 7 11.263 7 11 Z"
        fill="none"
        stroke="#636363ff"/>
</svg>
