<svg
    xmlns="http://www.w3.org/2000/svg"
    viewBox="0 0 24 24"
    id="vector">
    <path
        id="path"
        d="M 23.56 21.44 L 22.96 20.84 C 22.99 20.73 23 20.62 23 20.5 L 23 19.5 C 23 17.5 21.68 15.82 19.88 15.24 C 19.95 14.8 20 14.35 20 13.89 C 20 13.63 19.97 13.33 19.92 13 L 21.5 13 C 22.33 13 23 12.33 23 11.5 C 23 10.67 22.33 10 21.5 10 L 19.17 10 C 18.95 9.3 18.72 8.61 18.49 8 L 18.49 8 C 20.97 8 22.99 5.98 22.99 3.5 C 22.99 2.67 22.32 2 21.49 2 C 20.66 2 19.99 2.67 19.99 3.5 C 19.99 4.33 19.32 5 18.49 5 L 17.24 5 C 16.14 3.16 14.16 2 11.99 2 C 9.82 2 8.01 3.07 6.89 4.78 L 2.56 0.44 C 1.97 -0.15 1.03 -0.15 0.44 0.44 C -0.15 1.02 -0.15 1.98 0.44 2.56 L 21.44 23.56 C 21.73 23.85 22.12 24 22.5 24 C 22.88 24 23.27 23.85 23.56 23.56 C 24.15 22.97 24.15 22.02 23.56 21.44 Z M 9.12 6.93 C 9.62 5.76 10.75 5 12 5 C 13.25 5 14.38 5.76 14.88 6.92 C 15.43 8.19 17 12.56 17 13.88 C 17 14.19 16.97 14.49 16.91 14.78 L 9.1 6.97 C 9.1 6.97 9.12 6.93 9.12 6.92 Z M 14.96 19.98 C 15.15 20.79 14.66 21.6 13.85 21.79 C 13.25 21.94 12.62 22.01 12 22.01 C 9.09 22.01 6.54 20.42 5.14 18.06 C 4.48 18.22 4 18.81 4 19.51 C 4 20.34 3.33 21.01 2.5 21.01 C 1.67 21.01 1 20.34 1 19.51 C 1 17.51 2.32 15.84 4.12 15.25 C 4.05 14.81 4 14.36 4 13.9 C 4 13.65 4.02 13.35 4.07 13.02 L 2.5 13.02 C 1.67 13.02 1 12.34 1 11.52 C 1 10.7 1.67 10.02 2.5 10.02 L 4.1 10.02 C 4.96 10.02 5.78 10.39 6.34 11.05 C 6.91 11.71 7.17 12.6 7.04 13.47 C 7.02 13.64 7 13.79 7 13.91 C 7 16.73 9.24 19.02 12 19.02 C 12.39 19.02 12.78 18.97 13.15 18.88 C 13.96 18.69 14.77 19.18 14.96 19.99 Z"
        fill="none"
        stroke="#636363ff"/>
</svg>
