<svg
    xmlns="http://www.w3.org/2000/svg"
    viewBox="0 0 24 24"
    id="vector">
    <path
        id="path"
        d="M 19 14 C 18.35 14.001 17.706 14.129 17.105 14.378 L 13.947 10.563 L 20.655 2.457 C 20.86 2.213 20.982 1.911 21.004 1.593 C 21.025 1.276 20.945 0.96 20.775 0.69 C 20.606 0.421 20.354 0.213 20.058 0.096 C 19.762 -0.021 19.437 -0.04 19.129 0.04 C 18.821 0.12 18.546 0.296 18.345 0.543 L 12 8.21 L 5.656 0.543 C 5.402 0.238 5.037 0.046 4.641 0.009 C 4.246 -0.027 3.852 0.094 3.546 0.348 C 3.24 0.601 3.047 0.965 3.009 1.361 C 2.971 1.756 3.092 2.15 3.344 2.457 L 10.053 10.562 L 6.9 14.378 C 5.788 13.915 4.545 13.867 3.4 14.241 C 2.255 14.615 1.281 15.388 0.656 16.418 C 0.032 17.448 -0.203 18.669 -0.006 19.857 C 0.192 21.046 0.809 22.125 1.734 22.897 C 2.658 23.67 3.83 24.086 5.035 24.069 C 6.239 24.053 7.399 23.604 8.302 22.807 C 9.204 22.009 9.792 20.913 9.957 19.72 C 10.121 18.526 9.853 17.313 9.2 16.3 L 12 12.915 L 14.8 16.3 C 14.115 17.37 13.863 18.662 14.097 19.911 C 14.331 21.16 15.033 22.273 16.059 23.023 C 17.085 23.772 18.359 24.103 19.62 23.946 C 20.881 23.789 22.035 23.157 22.846 22.179 C 23.657 21.201 24.065 19.95 23.986 18.682 C 23.907 17.414 23.347 16.222 22.421 15.353 C 21.495 14.483 20.27 13.999 19 14 Z M 5 21 C 4.47 21 3.961 20.789 3.586 20.414 C 3.211 20.039 3 19.53 3 19 C 3 18.47 3.211 17.961 3.586 17.586 C 3.961 17.211 4.47 17 5 17 C 5.53 17 6.039 17.211 6.414 17.586 C 6.789 17.961 7 18.47 7 19 C 7 19.53 6.789 20.039 6.414 20.414 C 6.039 20.789 5.53 21 5 21 Z M 19 21 C 18.47 21 17.961 20.789 17.586 20.414 C 17.211 20.039 17 19.53 17 19 C 17 18.47 17.211 17.961 17.586 17.586 C 17.961 17.211 18.47 17 19 17 C 19.53 17 20.039 17.211 20.414 17.586 C 20.789 17.961 21 18.47 21 19 C 21 19.53 20.789 20.039 20.414 20.414 C 20.039 20.789 19.53 21 19 21 Z"
        fill="#000000"
        stroke="#000000"/>
</svg>
