<svg
    xmlns="http://www.w3.org/2000/svg"
    viewBox="0 0 24 24"
    id="vector">
    <path
        id="path_1"
        d="M 8.439 12.439 L 9.879 11 L 8.439 9.561 C 8.159 9.279 8.002 8.898 8.003 8.501 C 8.003 8.104 8.162 7.723 8.442 7.442 C 8.723 7.162 9.104 7.003 9.501 7.003 C 9.898 7.002 10.279 7.159 10.561 7.439 L 12 8.879 L 13.439 7.439 C 13.721 7.159 14.102 7.002 14.499 7.003 C 14.896 7.003 15.277 7.162 15.558 7.442 C 15.838 7.723 15.997 8.104 15.997 8.501 C 15.998 8.898 15.841 9.279 15.561 9.561 L 14.121 11 L 15.561 12.439 C 15.841 12.721 15.998 13.102 15.997 13.499 C 15.997 13.896 15.838 14.277 15.558 14.558 C 15.277 14.838 14.896 14.997 14.499 14.997 C 14.102 14.998 13.721 14.841 13.439 14.561 L 12 13.121 L 10.561 14.561 C 10.279 14.841 9.898 14.998 9.501 14.997 C 9.104 14.997 8.723 14.838 8.442 14.558 C 8.162 14.277 8.003 13.896 8.003 13.499 C 8.002 13.102 8.159 12.721 8.439 12.439 Z M 4.262 18.894 C 2.188 16.82 1.019 14.007 1.011 11.075 C 1.003 8.142 2.157 5.323 4.22 3.238 C 5.582 1.867 7.284 0.879 9.15 0.377 C 11.017 -0.125 12.984 -0.125 14.851 0.377 C 16.717 0.879 18.419 1.867 19.781 3.238 C 21.839 5.314 22.995 8.122 22.995 11.046 C 22.995 13.969 21.839 16.777 19.781 18.853 L 15.973 22.39 C 14.904 23.426 13.47 24.004 11.98 23.999 C 10.491 23.993 9.062 23.405 8 22.36 Z M 6.346 16.737 L 10.068 20.191 C 10.578 20.692 11.263 20.976 11.978 20.982 C 12.694 20.987 13.383 20.714 13.901 20.221 L 17.7 16.7 C 19.185 15.184 20.013 13.142 20.005 11.02 C 19.997 8.898 19.153 6.863 17.657 5.358 L 17.657 5.358 C 16.667 4.361 15.431 3.643 14.074 3.278 C 12.718 2.913 11.288 2.913 9.932 3.278 C 8.575 3.643 7.339 4.361 6.349 5.358 C 4.849 6.871 4.007 8.917 4.006 11.047 C 4.006 13.177 4.847 15.223 6.346 16.737 Z"
        fill="none"
        stroke="#000000"/>
</svg>
