<svg
    xmlns="http://www.w3.org/2000/svg"
    viewBox="0 0 512 512"
    id="vector">
    <path
        id="path_1"
        d="M 490.667 96 C 490.667 78.327 476.34 64 458.667 64 L 378.112 64 C 364.632 25.757 328.549 0.13 288 0 L 224 0 C 183.451 0.13 147.368 25.757 133.888 64 L 53.333 64 C 35.66 64 21.333 78.327 21.333 96 L 21.333 96 C 21.333 113.673 35.66 128 53.333 128 L 64 128 L 64 394.667 C 64 459.468 116.532 512 181.333 512 L 330.666 512 C 395.468 512 448 459.468 448 394.667 L 448 128 L 458.667 128 C 476.34 128 490.667 113.673 490.667 96 Z M 384 394.667 C 384 424.122 360.122 448 330.667 448 L 181.333 448 C 151.878 448 128 424.122 128 394.667 L 128 128 L 384 128 L 384 394.667 Z"
        fill="#000000"
        stroke="#000000"/>
    <path
        id="path_2"
        d="M 202.667 384 C 220.34 384 234.667 369.673 234.667 352 L 234.667 224 C 234.667 206.327 220.34 192 202.667 192 C 184.994 192 170.667 206.327 170.667 224 L 170.667 352 C 170.667 369.673 184.994 384 202.667 384 Z"
        fill="#000000"/>
    <path
        id="path_3"
        d="M 309.333 384 C 327.006 384 341.333 369.673 341.333 352 L 341.333 224 C 341.333 206.327 327.006 192 309.333 192 C 291.66 192 277.333 206.327 277.333 224 L 277.333 352 C 277.333 369.673 291.66 384 309.333 384 Z"
        fill="#000000"/>
</svg>
