<svg
    xmlns="http://www.w3.org/2000/svg"
    viewBox="0 0 24 24"
    id="vector">
    <path
        id="dup"
        d="M 17.611 6.389 C 16.489 2.696 13.054 0 9 0 C 4.038 0 0 4.038 0 9 C 0 13.054 2.696 16.489 6.389 17.611 C 7.511 21.304 10.945 24 15 24 C 19.962 24 24 19.962 24 15 C 24 10.946 21.304 7.511 17.611 6.389 Z M 3 9 C 3 5.691 5.691 3 9 3 C 11.232 3 13.179 4.227 14.213 6.04 C 9.879 6.418 6.419 9.878 6.04 14.213 C 4.227 13.179 3 11.232 3 9 Z M 15 21 C 12.768 21 10.821 19.773 9.787 17.96 C 14.121 17.582 17.581 14.122 17.96 9.787 C 19.773 10.821 21 12.768 21 15 C 21 18.309 18.309 21 15 21 Z"
        fill="none"
        stroke="#000000"/>
</svg>
