<svg
    xmlns="http://www.w3.org/2000/svg"
    viewBox="0 0 24 24"
    id="vector">
    <path
        id="path_1"
        d="M 18.813 10 C 19.122 10 19.414 9.857 19.603 9.613 C 19.792 9.369 19.858 9.051 19.782 8.752 C 19.471 7.535 18.837 6.423 17.949 5.535 L 14.464 2.05 C 13.142 0.728 11.384 0 9.514 0 L 4.999 0 C 2.243 0 0 2.243 0 5 L 0 19 C 0 21.757 2.243 24 5 24 L 8 24 C 8.552 24 9 23.552 9 23 C 9 22.448 8.552 22 8 22 L 5 22 C 3.346 22 2 20.654 2 19 L 2 5 C 2 3.346 3.346 2 5 2 L 9.515 2 C 9.678 2 9.84 2.008 10 2.023 L 10 7 C 10 8.654 11.346 10 13 10 L 18.813 10 Z M 12 7 L 12 2.659 C 12.379 2.877 12.732 3.147 13.05 3.465 L 16.535 6.95 C 16.849 7.264 17.118 7.618 17.338 8 L 13 8 C 12.449 8 12 7.551 12 7 Z M 23.122 11.879 C 21.988 10.745 20.012 10.745 18.879 11.879 L 12.172 18.586 C 11.417 19.341 11 20.346 11 21.415 L 11 23.001 C 11 23.553 11.448 24.001 12 24.001 L 13.586 24.001 C 14.655 24.001 15.659 23.584 16.414 22.829 L 23.121 16.122 C 23.688 15.555 24 14.802 24 14 C 24 13.198 23.688 12.445 23.122 11.879 Z M 21.707 14.707 L 14.999 21.414 C 14.622 21.792 14.12 22 13.585 22 L 12.999 22 L 12.999 21.414 C 12.999 20.88 13.207 20.378 13.585 20 L 20.293 13.293 C 20.67 12.915 21.329 12.915 21.707 13.293 C 21.896 13.481 22 13.732 22 14 C 22 14.268 21.896 14.518 21.707 14.707 Z"
        fill="none"
        stroke="#000000"/>
</svg>
