<svg
    xmlns="http://www.w3.org/2000/svg"
    viewBox="0 0 24 24"
    id="vector">
    <path
        id="path"
        d="M 23.694 19.761 L 21.298 17.365 C 20.819 16.886 20 17.225 20 17.902 L 20 19 C 19.424 19 18.315 16.831 17.843 15.904 C 16.817 13.896 15.848 12 14 12 C 12.152 12 11.184 13.896 10.157 15.904 C 9.684 16.83 8.576 19 8 19 L 7.992 19 C 8.528 17.643 8.969 15.833 9.486 13.699 C 9.951 11.782 10.771 8.402 11.491 7.257 C 11.666 7.54 11.923 8.057 12.238 8.983 C 12.505 9.768 13.355 10.189 14.141 9.92 C 14.925 9.653 15.344 8.801 15.078 8.017 C 14.669 6.815 13.712 4 11.5 4 C 8.752 4 7.789 7.968 6.571 12.992 C 6.174 14.626 5.621 16.89 5.122 18.091 C 5.044 17.909 5 17.71 5 17.5 L 5 4 L 6.098 4 C 6.775 4 7.114 3.181 6.635 2.702 L 4.239 0.306 C 3.831 -0.102 3.169 -0.102 2.761 0.306 L 0.365 2.702 C -0.114 3.181 0.225 4 0.902 4 L 2 4 L 2 17.5 C 2 19.179 2.935 20.629 4.302 21.402 C 4.404 21.475 4.515 21.536 4.633 21.582 C 5.203 21.844 5.832 21.999 6.499 21.999 L 19.999 21.999 L 19.999 23.097 C 19.999 23.774 20.818 24.113 21.297 23.634 L 23.693 21.238 C 24.101 20.83 24.101 20.168 23.693 19.76 Z M 12.829 17.269 C 13.147 16.645 13.637 15.687 14 15.206 C 14.363 15.687 14.853 16.645 15.171 17.269 C 15.464 17.843 15.768 18.435 16.098 19 L 11.902 19 C 12.232 18.435 12.536 17.843 12.829 17.269 Z"
        fill="none"
        stroke="#636363ff"/>
</svg>
