<svg
    xmlns="http://www.w3.org/2000/svg"
    viewBox="0 0 24 24"
    id="vector">
    <path
        id="path"
        d="M 17.8 21.21 C 18.22 21.93 17.97 22.84 17.25 23.26 C 16.42 23.74 15.47 24 14.5 24 L 5.5 24 C 2.47 24 0 21.53 0 18.5 L 0 5.5 C 0 2.47 2.47 0 5.5 0 L 11.84 0 C 13.29 0 14.71 0.59 15.73 1.61 L 18.39 4.27 C 19.21 5.09 19.74 6.12 19.93 7.26 C 20.07 8.08 19.51 8.87 18.7 9.01 C 18.64 9.02 13.01 9.01 13.01 9.01 C 11.91 9.01 11.01 8.11 11.01 7.01 L 11.01 3 L 5.5 3 C 4.12 3 3 4.12 3 5.5 L 3 18.5 C 3 19.88 4.12 21 5.5 21 L 14.5 21 C 14.94 21 15.37 20.88 15.75 20.67 C 16.46 20.26 17.38 20.5 17.8 21.22 Z M 23.71 14.79 L 20.71 11.63 C 20.08 11 19 11.45 19 12.34 L 19 14 L 13.5 14 C 12.67 14 12 14.67 12 15.5 C 12 16.33 12.67 17 13.5 17 L 19 17 L 19 18.66 C 19 19.55 20.08 20 20.71 19.37 L 23.71 16.21 C 24.1 15.82 24.1 15.19 23.71 14.8 Z"
        fill="none"
        stroke="#000000"/>
</svg>
