<svg
    xmlns="http://www.w3.org/2000/svg"
    viewBox="0 0 24 24"
    id="vector">
    <path
        id="path_1"
        d="M 14.5 24 C 14.228 24 13.962 23.926 13.729 23.786 L 8.729 20.786 C 8.507 20.653 8.323 20.464 8.195 20.239 C 8.067 20.014 8 19.759 8 19.5 L 8 14.335 L 2.034 7.035 C 1.362 6.265 0.995 5.275 1 4.253 C 1.001 3.126 1.45 2.044 2.247 1.247 C 3.044 0.45 4.126 0.001 5.253 0 L 18.747 0 C 19.846 0 20.903 0.426 21.694 1.188 C 22.486 1.95 22.953 2.989 22.996 4.087 C 23.039 5.185 22.656 6.258 21.926 7.079 L 16 14.382 L 16 22.5 C 16 22.898 15.842 23.279 15.561 23.561 C 15.279 23.842 14.898 24 14.5 24 Z M 11 18.65 L 13 19.85 L 13 13.85 C 13 13.506 13.118 13.171 13.335 12.904 L 19.64 5.137 C 19.867 4.898 19.996 4.582 20 4.253 C 19.999 3.921 19.867 3.602 19.632 3.368 C 19.398 3.133 19.079 3.001 18.747 3 L 5.253 3 C 4.929 3 4.618 3.126 4.385 3.35 C 4.152 3.575 4.014 3.881 4.001 4.204 C 3.988 4.528 4.101 4.844 4.316 5.086 L 10.662 12.851 C 10.881 13.119 11 13.454 11 13.8 Z"
        fill="none"
        stroke="#636363ff"/>
</svg>
