<svg
    xmlns="http://www.w3.org/2000/svg"
    viewBox="0 0 24 24"
    id="vector">
    <path
        id="path"
        d="M 16 16 C 16 16.265 15.895 16.52 15.707 16.707 C 15.52 16.895 15.265 17 15 17 L 13 17 L 13 19 C 13 19.265 12.895 19.52 12.707 19.707 C 12.52 19.895 12.265 20 12 20 C 11.735 20 11.48 19.895 11.293 19.707 C 11.105 19.52 11 19.265 11 19 L 11 17 L 9 17 C 8.735 17 8.48 16.895 8.293 16.707 C 8.105 16.52 8 16.265 8 16 C 8 15.735 8.105 15.48 8.293 15.293 C 8.48 15.105 8.735 15 9 15 L 11 15 L 11 13 C 11 12.735 11.105 12.48 11.293 12.293 C 11.48 12.105 11.735 12 12 12 C 12.265 12 12.52 12.105 12.707 12.293 C 12.895 12.48 13 12.735 13 13 L 13 15 L 15 15 C 15.265 15 15.52 15.105 15.707 15.293 C 15.895 15.48 16 15.735 16 16 Z M 22 10.485 L 22 19 C 21.998 20.325 21.471 21.597 20.534 22.534 C 19.597 23.471 18.325 23.998 17 24 L 7 24 C 5.675 23.998 4.403 23.471 3.466 22.534 C 2.529 21.597 2.002 20.325 2 19 L 2 5 C 2.002 3.675 2.529 2.403 3.466 1.466 C 4.403 0.529 5.675 0.002 7 0 L 11.515 0 C 12.435 -0.002 13.346 0.178 14.195 0.529 C 15.045 0.881 15.816 1.398 16.465 2.05 L 19.949 5.536 C 20.601 6.184 21.118 6.955 21.47 7.805 C 21.822 8.654 22.002 9.565 22 10.485 Z M 15.051 3.464 C 14.736 3.159 14.383 2.897 14 2.684 L 14 7 C 14 7.265 14.105 7.52 14.293 7.707 C 14.48 7.895 14.735 8 15 8 L 19.316 8 C 19.103 7.617 18.84 7.264 18.535 6.95 Z M 20 10.485 C 20 10.32 19.968 10.162 19.953 10 L 15 10 C 14.205 10 13.441 9.684 12.879 9.121 C 12.316 8.559 12 7.795 12 7 L 12 2.047 C 11.838 2.032 11.679 2 11.515 2 L 7 2 C 6.205 2 5.441 2.316 4.879 2.879 C 4.316 3.441 4 4.205 4 5 L 4 19 C 4 19.795 4.316 20.559 4.879 21.121 C 5.441 21.684 6.205 22 7 22 L 17 22 C 17.795 22 18.559 21.684 19.121 21.121 C 19.684 20.559 20 19.795 20 19 Z"
        fill="none"
        stroke="#636363ff"/>
</svg>
