<svg
    xmlns="http://www.w3.org/2000/svg"
    viewBox="0 0 24 24"
    id="vector">
    <path
        id="path"
        d="M 7.896 16.104 C 7.31 15.519 7.31 14.568 7.896 13.983 C 8.482 13.397 9.431 13.397 10.017 13.983 C 11.343 15.309 13.657 15.31 14.983 13.983 L 19.972 8.994 C 21.341 7.625 21.341 5.397 19.972 4.028 C 18.603 2.659 16.375 2.659 15.006 4.028 C 14.42 4.614 13.471 4.614 12.885 4.028 C 12.299 3.443 12.299 2.492 12.885 1.907 C 15.423 -0.632 19.555 -0.632 22.093 1.907 C 24.632 4.446 24.632 8.576 22.093 11.115 L 17.104 16.104 C 15.834 17.374 14.167 18.008 12.5 18.008 C 10.833 18.008 9.165 17.373 7.896 16.104 Z M 6.512 23.997 C 8.179 23.997 9.846 23.362 11.116 22.093 C 11.702 21.508 11.702 20.557 11.116 19.972 C 10.53 19.386 9.581 19.386 8.995 19.972 C 7.625 21.342 5.397 21.341 4.029 19.972 C 2.66 18.603 2.66 16.375 4.029 15.006 L 8.99 10.045 C 10.36 8.675 12.588 8.675 13.956 10.045 C 14.542 10.631 15.491 10.631 16.077 10.045 C 16.663 9.46 16.663 8.509 16.077 7.924 C 13.538 5.385 9.408 5.385 6.869 7.924 L 1.907 12.885 C -0.632 15.424 -0.632 19.554 1.907 22.093 C 3.177 23.363 4.844 23.997 6.511 23.997 Z"
        fill="none"
        stroke="#000000"/>
</svg>
