<svg
    xmlns="http://www.w3.org/2000/svg"
    viewBox="0 0 24 24"
    id="vector">
    <path
        id="path_1"
        d="M 22.485 10.975 L 12 17.267 L 1.515 10.975 C 1.334 10.866 1.123 10.816 0.912 10.835 C 0.701 10.853 0.501 10.937 0.342 11.076 C 0.182 11.215 0.07 11.401 0.023 11.607 C -0.024 11.813 -0.005 12.029 0.078 12.224 C 0.161 12.418 0.304 12.582 0.486 12.69 L 11.486 19.29 C 11.642 19.383 11.82 19.433 12.001 19.433 C 12.182 19.433 12.36 19.383 12.516 19.29 L 23.516 12.69 C 23.698 12.582 23.841 12.418 23.924 12.224 C 24.007 12.029 24.026 11.813 23.979 11.607 C 23.932 11.401 23.82 11.215 23.66 11.076 C 23.501 10.937 23.301 10.853 23.09 10.835 C 22.879 10.816 22.668 10.866 22.487 10.975 Z"
        fill="none"
        stroke="#000000"/>
    <path
        id="path_2"
        d="M 22.485 15.543 L 12 21.834 L 1.515 15.543 C 1.334 15.434 1.123 15.384 0.912 15.403 C 0.701 15.421 0.501 15.505 0.342 15.644 C 0.182 15.783 0.07 15.969 0.023 16.175 C -0.024 16.381 -0.005 16.597 0.078 16.792 C 0.161 16.986 0.304 17.15 0.486 17.258 L 11.486 23.858 C 11.642 23.951 11.82 24.001 12.001 24.001 C 12.182 24.001 12.36 23.951 12.516 23.858 L 23.516 17.258 C 23.698 17.15 23.841 16.986 23.924 16.792 C 24.007 16.597 24.026 16.381 23.979 16.175 C 23.932 15.969 23.82 15.783 23.66 15.644 C 23.501 15.505 23.301 15.421 23.09 15.403 C 22.879 15.384 22.668 15.434 22.487 15.543 Z"
        fill="none"
        stroke="#000000"/>
    <path
        id="path_3"
        d="M 12 14.773 C 11.461 14.773 10.931 14.626 10.469 14.348 L 0.485 8.357 C 0.287 8.238 0.136 8.054 0.059 7.836 C -0.019 7.619 -0.019 7.381 0.059 7.164 C 0.136 6.946 0.287 6.762 0.485 6.643 L 10.469 0.652 C 10.931 0.374 11.461 0.227 12 0.227 C 12.539 0.227 13.069 0.374 13.531 0.652 L 23.515 6.643 C 23.713 6.762 23.864 6.946 23.941 7.164 C 24.019 7.381 24.019 7.619 23.941 7.836 C 23.864 8.054 23.713 8.238 23.515 8.357 L 13.531 14.348 C 13.069 14.626 12.539 14.773 12 14.773 Z M 2.944 7.5 L 11.5 12.633 C 11.651 12.723 11.824 12.771 12 12.771 C 12.176 12.771 12.349 12.723 12.5 12.633 L 21.056 7.5 L 12.5 2.367 C 12.349 2.277 12.176 2.229 12 2.229 C 11.824 2.229 11.651 2.277 11.5 2.367 L 11.5 2.367 Z"
        fill="none"
        stroke="#000000"/>
</svg>
