<svg
    xmlns="http://www.w3.org/2000/svg"
    viewBox="0 0 24 24"
    id="vector">
    <path
        id="path_1"
        d="M 3.101 14 C 3.566 11.721 5.585 10 8 10 L 11 10 L 11 1 C 11 0.448 11.448 0 12 0 C 12.552 0 13 0.448 13 1 L 13 10 L 16 10 C 18.414 10 20.434 11.721 20.899 14 Z M 17 16 L 17 19 C 17 19.552 16.553 20 16 20 C 15.447 20 15 19.552 15 19 L 15 16 L 13 16 L 13 19 C 13 19.552 12.552 20 12 20 C 11.448 20 11 19.552 11 19 L 11 16 L 9 16 L 9 19 C 9 19.552 8.552 20 8 20 C 7.448 20 7 19.552 7 19 L 7 16 L 3 16 L 3 21 C 3 21.449 2.449 22 2 22 C 1.448 22 1 22.448 1 23 C 1 23.552 1.448 24 2 24 L 17 24 C 19.206 24 21 22.206 21 20 L 21 16 Z M 5.197 6.028 L 5.72 4.72 L 7.028 4.197 C 7.313 4.083 7.5 3.807 7.5 3.5 C 7.5 3.193 7.313 2.917 7.028 2.803 L 5.72 2.28 L 5.197 0.972 C 5.083 0.687 4.807 0.5 4.5 0.5 C 4.193 0.5 3.917 0.687 3.803 0.972 L 3.283 2.273 L 1.984 2.765 C 1.697 2.873 1.505 3.146 1.5 3.452 C 1.495 3.759 1.676 4.038 1.959 4.157 L 3.277 4.713 L 3.803 6.029 C 3.917 6.314 4.193 6.501 4.5 6.501 C 4.807 6.501 5.083 6.314 5.197 6.029 Z M 21.197 8.028 L 21.72 6.72 L 23.028 6.197 C 23.313 6.083 23.5 5.807 23.5 5.5 C 23.5 5.193 23.313 4.917 23.028 4.803 L 21.72 4.28 L 21.197 2.972 C 21.083 2.687 20.807 2.5 20.5 2.5 C 20.193 2.5 19.917 2.687 19.803 2.972 L 19.283 4.273 L 17.984 4.765 C 17.697 4.873 17.505 5.146 17.5 5.452 C 17.495 5.759 17.676 6.038 17.959 6.157 L 19.277 6.713 L 19.803 8.029 C 19.917 8.314 20.193 8.501 20.5 8.501 C 20.807 8.501 21.083 8.314 21.197 8.029 Z"
        fill="#636363ff"
        stroke="#636363ff"/>
</svg>
