<svg
    xmlns="http://www.w3.org/2000/svg"
    viewBox="0 0 24 24"
    id="vector">
    <path
        id="path"
        d="M 22.943 3.714 C 22.272 3.143 21.383 2.897 20.504 3.04 C 20.292 3.074 20.088 3.133 19.895 3.212 C 19.548 1.939 18.382 0.999 17.001 0.999 C 16.466 0.999 15.964 1.14 15.529 1.387 C 14.995 0.554 14.062 -0.001 13.001 -0.001 C 11.619 -0.001 10.453 0.938 10.106 2.212 C 9.912 2.133 9.709 2.074 9.497 2.039 C 8.618 1.897 7.729 2.142 7.058 2.713 C 6.386 3.284 6.001 4.117 6.001 4.999 L 6.001 13.697 L 5.045 12.804 C 3.837 11.679 1.938 11.743 0.811 12.949 C -0.318 14.157 -0.255 16.059 0.941 17.18 L 4.235 20.356 C 6.671 22.705 9.875 23.998 13.258 23.998 L 15.001 23.998 C 19.963 23.998 24.001 19.96 24.001 14.998 L 24.001 6 C 24.001 5.119 23.616 4.286 22.944 3.714 Z M 22 15 C 22 18.86 18.86 22 15 22 L 13.257 22 C 10.395 22 7.683 20.906 5.622 18.919 L 2.318 15.733 C 1.915 15.355 1.894 14.72 2.271 14.316 C 2.647 13.915 3.279 13.894 3.68 14.268 L 6.318 16.731 C 6.61 17.003 7.035 17.075 7.399 16.917 C 7.764 16.758 8.001 16.398 8.001 16 L 8.001 5 C 8.001 4.706 8.129 4.428 8.354 4.238 C 8.582 4.045 8.873 3.966 9.177 4.014 C 9.639 4.09 10.002 4.57 10.002 5.107 L 10.002 10 C 10.002 10.552 10.45 11 11.002 11 C 11.554 11 12.002 10.552 12.002 10 L 12.002 3 C 12.002 2.449 12.451 2 13.002 2 C 13.553 2 14.002 2.449 14.002 3 L 14.002 10 C 14.002 10.552 14.45 11 15.002 11 C 15.554 11 16.002 10.552 16.002 10 L 16.002 4 C 16.002 3.449 16.451 3 17.002 3 C 17.553 3 18.002 3.449 18.002 4 L 18.002 10 C 18.002 10.552 18.45 11 19.002 11 C 19.554 11 20.002 10.552 20.002 10 L 20.002 6.107 C 20.002 5.569 20.364 5.089 20.827 5.014 C 21.13 4.967 21.422 5.044 21.65 5.238 C 21.874 5.428 22.003 5.706 22.003 6 L 22.003 15 Z"
        fill="none"
        stroke="#636363ff"/>
</svg>
