<svg
    xmlns="http://www.w3.org/2000/svg"
    viewBox="0 0 24 24"
    id="vector">
    <path
        id="path"
        d="M 22.138 17.625 C 21.853 17.876 21.499 18 21.146 18 C 20.73 18 20.317 17.828 20.021 17.492 C 19.473 16.871 19.532 15.923 20.154 15.375 C 20.762 14.839 21.066 14.063 20.989 13.249 C 20.881 12.116 20.075 11.253 19 11.047 C 18.975 11.854 18.313 12.5 17.5 12.5 C 16.671 12.5 16 11.828 16 11 L 16 10.5 C 16 9.321 16.822 8.337 17.921 8.074 C 17.474 5.205 14.993 3 12 3 C 9.007 3 6.526 5.205 6.079 8.074 C 7.178 8.337 8 9.321 8 10.5 L 8 11 C 8 11.828 7.329 12.5 6.5 12.5 C 5.687 12.5 5.025 11.854 5 11.047 C 3.925 11.252 3.12 12.116 3.012 13.25 C 2.934 14.064 3.239 14.839 3.846 15.375 C 4.468 15.923 4.527 16.871 3.979 17.492 C 3.682 17.828 3.269 18 2.854 18 C 2.501 18 2.147 17.876 1.862 17.625 C 0.525 16.445 -0.144 14.747 0.026 12.965 C 0.211 11.025 1.387 9.431 3.02 8.608 C 3.227 3.828 7.17 0 12 0 C 16.83 0 20.773 3.828 20.98 8.608 C 22.613 9.431 23.789 11.025 23.975 12.965 C 24.144 14.747 23.475 16.445 22.138 17.625 Z M 18 18 C 18 21.314 15.314 24 12 24 C 8.686 24 6 21.314 6 18 C 6 14.686 8.686 12 12 12 C 15.314 12 18 14.686 18 18 Z M 12.767 20.888 L 9.111 17.233 C 9.045 17.479 8.999 17.733 8.999 18 C 8.999 19.654 10.345 21 11.999 21 C 12.266 21 12.52 20.954 12.766 20.888 Z M 15 18 C 15 16.346 13.654 15 12 15 C 11.733 15 11.479 15.046 11.233 15.112 L 14.889 18.767 C 14.955 18.521 15.001 18.267 15.001 18 Z"
        fill="#000000"/>
    <path
        id="path_7"
        d="M 18 18 C 18 21.314 15.314 24 12 24 C 8.686 24 6 21.314 6 18 C 6 14.686 8.686 12 12 12 C 15.314 12 18 14.686 18 18 Z M 12.767 20.888 L 9.111 17.233 C 9.045 17.479 8.999 17.733 8.999 18 C 8.999 19.654 10.345 21 11.999 21 C 12.266 21 12.52 20.954 12.766 20.888 L 12.767 20.888 Z M 15 18 C 15 16.346 13.654 15 12 15 C 11.733 15 11.479 15.046 11.233 15.112 L 14.889 18.767 C 14.955 18.521 15.001 18.267 15.001 18 L 15 18 Z"
        fill="#000000"/>
</svg>
