<svg
    xmlns="http://www.w3.org/2000/svg"
    viewBox="0 0 24 24"
    id="vector">
    <path
        id="path_1"
        d="M 4.659 11.858 C 5.825 11.325 6.272 10.962 7.091 9.997 C 7.626 9.365 7.548 8.418 6.916 7.883 C 6.665 7.669 6.364 7.554 6.059 7.531 C 6.9 5.493 8.75 4.677 12.077 4.677 C 16.232 4.677 17.973 5.856 18.502 9.029 C 18.638 9.846 19.418 10.4 20.228 10.262 C 21.045 10.126 21.597 9.353 21.461 8.536 C 20.438 2.388 15.615 1.677 12.077 1.677 C 10.115 1.677 4.684 1.677 3.002 7.249 C 2.629 7.117 2.205 7.131 1.822 7.324 C 1.084 7.698 0.787 8.6 1.162 9.34 C 1.73 10.463 2.091 10.902 3.095 11.685 C 3.364 11.895 3.954 12.181 4.659 11.859 Z"
        fill="#636363ff"
        stroke="#636363ff"/>
    <path
        id="path_2"
        d="M 22.838 14.66 C 22.27 13.537 21.909 13.098 20.905 12.315 C 20.459 11.966 19.853 11.899 19.341 12.141 C 18.182 12.689 17.728 13.037 16.909 14.002 C 16.374 14.634 16.452 15.581 17.084 16.116 C 17.335 16.329 17.636 16.445 17.941 16.467 C 17.1 18.506 15.25 19.322 11.922 19.322 C 7.767 19.322 6.026 18.143 5.497 14.97 C 5.36 14.153 4.582 13.594 3.771 13.737 C 2.954 13.873 2.402 14.646 2.538 15.463 C 3.56 21.611 8.384 22.322 11.922 22.322 C 13.885 22.322 19.315 22.322 20.997 16.75 C 21.454 16.944 21.959 16.785 22.177 16.675 C 22.915 16.301 23.212 15.399 22.837 14.659 Z"
        fill="#636363ff"
        stroke="#636363ff"/>
</svg>
