<svg
    xmlns="http://www.w3.org/2000/svg"
    viewBox="0 0 24 24"
    id="vector">
    <path
        id="path_1"
        d="M 19 24 L 17 24 C 16.448 24 16 23.552 16 23 C 16 22.448 16.448 22 17 22 L 19 22 C 19.552 22 20 22.448 20 23 C 20 23.552 19.552 24 19 24 Z M 13 24 L 11 24 C 10.448 24 10 23.552 10 23 C 10 22.448 10.448 22 11 22 L 13 22 C 13.552 22 14 22.448 14 23 C 14 23.552 13.552 24 13 24 Z M 22.443 22.393 C 22.257 22.393 22.07 22.342 21.902 22.233 C 21.438 21.934 21.304 21.315 21.604 20.851 C 21.863 20.45 22 19.982 22 19.5 C 22 18.948 22.448 18.5 23 18.5 L 23 18.5 C 23.553 18.5 24 18.948 24 19.5 C 24 20.368 23.752 21.209 23.285 21.934 C 23.094 22.23 22.772 22.392 22.444 22.392 Z M 20.954 17.316 C 20.815 17.316 20.673 17.287 20.538 17.225 C 20.212 17.076 19.862 17 19.498 17 L 18.999 17 C 18.447 17 17.999 16.552 17.999 16 C 17.999 15.448 18.447 15 18.999 15 L 19.499 15 C 20.152 15 20.781 15.137 21.37 15.407 C 21.872 15.636 22.093 16.23 21.863 16.732 C 21.695 17.099 21.332 17.316 20.953 17.316 Z M 15 17 C 14.106 17 13.228 16.696 12.527 16.144 C 12.093 15.802 12.018 15.173 12.36 14.74 C 12.702 14.306 13.332 14.231 13.764 14.573 C 14.119 14.852 14.546 15 14.999 15 C 15.551 15 15.999 15.448 15.999 16 C 15.999 16.552 15.552 17 14.999 17 Z M 12.27 12.754 C 12.131 12.754 11.99 12.725 11.855 12.663 C 11.353 12.434 11.131 11.84 11.361 11.338 C 11.573 10.874 11.869 10.459 12.24 10.105 C 12.638 9.725 13.273 9.739 13.654 10.139 C 14.035 10.538 14.02 11.171 13.62 11.553 C 13.434 11.73 13.287 11.938 13.181 12.17 C 13.013 12.538 12.65 12.755 12.271 12.755 Z M 22.536 1.464 L 22.536 1.464 C 21.591 0.52 20.335 0 19 0 C 17.665 0 16.409 0.52 15.464 1.464 C 13.515 3.414 13.515 6.586 15.472 8.543 L 17.273 10.304 C 17.749 10.77 18.375 11.003 19 11.003 C 19.625 11.003 20.251 10.77 20.727 10.304 L 22.536 8.535 C 24.485 6.585 24.485 3.413 22.536 1.464 Z M 19 6.5 C 18.172 6.5 17.5 5.828 17.5 5 C 17.5 4.172 18.172 3.5 19 3.5 C 19.828 3.5 20.5 4.172 20.5 5 C 20.5 5.828 19.828 6.5 19 6.5 Z M 8.535 14.464 C 7.591 13.52 6.335 13 5 13 C 3.665 13 2.409 13.52 1.464 14.464 C -0.485 16.414 -0.485 19.586 1.472 21.543 L 3.273 23.304 C 3.749 23.77 4.375 24.003 5 24.003 C 5.625 24.003 6.251 23.77 6.727 23.304 L 8.535 21.535 C 10.485 19.585 10.485 16.413 8.535 14.464 Z M 5 19.5 C 4.172 19.5 3.5 18.828 3.5 18 C 3.5 17.172 4.172 16.5 5 16.5 C 5.828 16.5 6.5 17.172 6.5 18 C 6.5 18.828 5.828 19.5 5 19.5 Z"
        fill="none"
        stroke="#636363ff"/>
</svg>
