<svg
    xmlns="http://www.w3.org/2000/svg"
    viewBox="0 0 24 24"
    id="vector">
    <path
        id="path"
        d="M 17.979 13.024 C 16.86 11.908 15.166 11.706 13.839 12.417 L 9.007 7.585 L 9.007 4.499 C 9.007 3.486 8.462 2.543 7.585 2.037 L 4.604 0.318 C 3.673 -0.22 2.492 -0.063 1.73 0.697 L 0.705 1.724 C -0.056 2.483 -0.211 3.665 0.326 4.596 L 2.045 7.577 L 2.045 7.577 C 2.551 8.455 3.495 9 4.507 9 L 7.593 9 L 12.419 13.826 C 12.141 14.334 11.993 14.905 11.993 15.5 C 11.993 16.436 12.358 17.314 13.021 17.976 L 18.035 22.976 C 18.693 23.632 19.589 24 20.515 24 C 21.5 24 22.603 23.479 23.233 22.711 C 24.359 21.339 24.209 19.236 22.892 17.924 L 17.979 13.025 Z M 3.777 6.579 L 2.058 3.597 C 1.972 3.449 1.997 3.26 2.119 3.138 L 3.144 2.112 C 3.266 1.991 3.455 1.965 3.604 2.051 L 6.584 3.771 C 6.844 3.921 7.006 4.201 7.006 4.5 L 7.006 7 L 4.506 7 C 4.206 7 3.927 6.839 3.777 6.579 Z M 21.687 21.442 C 21.411 21.779 21.021 21.976 20.59 21.998 C 20.169 22.018 19.749 21.859 19.448 21.56 L 14.434 16.56 C 14.15 16.277 13.994 15.901 13.994 15.5 C 13.994 15.099 14.151 14.724 14.434 14.44 C 14.728 14.147 15.115 14 15.501 14 C 15.887 14 16.273 14.147 16.567 14.44 L 21.481 19.339 C 22.077 19.934 22.168 20.857 21.688 21.442 Z M 10.437 17.099 C 10.827 17.491 10.826 18.123 10.435 18.513 L 5.958 22.975 C 5.3 23.631 4.405 23.999 3.478 23.999 C 2.597 23.999 1.39 23.478 0.76 22.709 C -0.365 21.338 -0.216 19.235 1.102 17.923 L 6.77 12.268 C 7.16 11.878 7.794 11.878 8.184 12.27 C 8.574 12.661 8.573 13.294 8.182 13.684 L 2.513 19.339 C 1.917 19.934 1.825 20.857 2.305 21.441 C 2.582 21.779 2.972 21.976 3.403 21.998 C 3.829 22.017 4.244 21.859 4.545 21.56 L 9.023 17.098 C 9.414 16.708 10.046 16.708 10.438 17.1 Z M 9.893 4.634 C 10.813 2.291 12.917 0.56 15.384 0.117 C 16.247 -0.037 17.114 -0.04 17.963 0.111 C 18.629 0.229 19.166 0.699 19.365 1.335 C 19.594 2.064 19.365 2.866 18.753 3.48 L 16.418 5.722 C 15.933 6.207 15.854 6.983 16.253 7.471 C 16.483 7.752 16.806 7.916 17.164 7.935 C 17.513 7.952 17.858 7.823 18.111 7.57 L 20.725 5.049 C 21.211 4.563 21.938 4.382 22.618 4.599 C 23.282 4.808 23.769 5.361 23.89 6.04 C 24.04 6.888 24.038 7.757 23.884 8.621 C 23.603 10.193 22.784 11.657 21.578 12.744 C 21.387 12.916 21.147 13.001 20.909 13.001 C 20.636 13.001 20.363 12.89 20.166 12.671 C 19.796 12.261 19.829 11.628 20.239 11.258 C 21.116 10.468 21.711 9.406 21.915 8.27 C 22.013 7.722 22.027 7.175 21.958 6.638 L 19.513 8.997 C 18.878 9.634 17.983 9.981 17.065 9.933 C 16.149 9.887 15.289 9.452 14.705 8.738 C 13.663 7.464 13.801 5.512 15.019 4.295 L 17.353 2.053 L 17.362 2.044 C 16.827 1.976 16.281 1.99 15.737 2.088 C 13.949 2.408 12.424 3.665 11.755 5.367 C 11.554 5.881 10.973 6.134 10.459 5.932 C 9.945 5.73 9.691 5.15 9.894 4.636 Z"
        fill="#636363ff"
        stroke="#636363ff"/>
</svg>
