<svg
    xmlns="http://www.w3.org/2000/svg"
    viewBox="0 0 24 24"
    id="vector">
    <path
        id="path"
        d="M 12 12 C 13.06 12 14.079 11.578 14.828 10.828 C 15.578 10.079 16 9.06 16 8 C 16 6.94 15.578 5.921 14.828 5.172 C 14.079 4.422 13.06 4 12 4 C 10.94 4 9.921 4.422 9.172 5.172 C 8.422 5.921 8 6.94 8 8 C 8 9.06 8.422 10.079 9.172 10.828 C 9.921 11.578 10.94 12 12 12 Z M 12 6 C 12.53 6 13.039 6.211 13.414 6.586 C 13.789 6.961 14 7.47 14 8 C 14 8.53 13.789 9.039 13.414 9.414 C 13.039 9.789 12.53 10 12 10 C 11.47 10 10.961 9.789 10.586 9.414 C 10.211 9.039 10 8.53 10 8 C 10 7.47 10.211 6.961 10.586 6.586 C 10.961 6.211 11.47 6 12 6 Z M 20.66 9.157 L 19.941 8.918 C 20.114 7.42 19.86 5.904 19.209 4.544 C 18.558 3.185 17.535 2.036 16.26 1.232 C 14.985 0.428 13.508 0.001 12 0 C 10.473 0.001 8.977 0.439 7.691 1.263 C 6.405 2.087 5.382 3.263 4.743 4.65 C 4.104 6.037 3.876 7.579 4.086 9.092 C 3.129 9.27 2.244 9.722 1.538 10.392 C 1.049 10.857 0.661 11.417 0.396 12.037 C 0.132 12.657 -0.003 13.326 0 14 L 0 18.075 C 0.002 19.156 0.354 20.208 1.003 21.073 C 1.651 21.938 2.563 22.57 3.6 22.875 L 6.47 23.775 C 6.952 23.925 7.454 24.001 7.959 24 C 8.417 23.999 8.873 23.937 9.314 23.814 L 15.094 22.104 C 15.609 21.963 16.152 21.963 16.667 22.104 L 19.054 22.904 C 19.841 23.096 20.668 23.044 21.425 22.755 C 22.181 22.467 22.833 21.955 23.293 21.288 C 23.753 20.622 23.999 19.831 24 19.021 L 24 13.872 C 23.998 12.838 23.675 11.829 23.078 10.985 C 22.48 10.14 21.635 9.502 20.66 9.156 Z M 7.758 3.762 C 8.501 3.015 9.429 2.478 10.447 2.205 C 11.464 1.932 12.536 1.932 13.553 2.205 C 14.571 2.478 15.499 3.015 16.242 3.762 C 17.364 4.891 17.995 6.418 17.997 8.01 C 17.999 9.601 17.372 11.13 16.253 12.262 L 12.7 15.717 C 12.515 15.899 12.265 16.001 12.005 16.001 C 11.746 16.001 11.496 15.899 11.311 15.717 L 7.758 12.277 C 6.634 11.146 6.002 9.614 6.002 8.02 C 6.002 6.425 6.634 4.893 7.758 3.762 Z M 22 19.021 C 22.001 19.324 21.932 19.623 21.8 19.895 C 21.667 20.168 21.475 20.406 21.236 20.593 C 21.011 20.774 20.748 20.904 20.467 20.972 C 20.186 21.04 19.893 21.046 19.61 20.988 L 17.265 20.2 C 16.378 19.945 15.438 19.94 14.548 20.184 L 8.764 21.892 C 8.208 22.045 7.62 22.035 7.07 21.863 L 4.176 20.963 C 3.55 20.782 2.999 20.402 2.607 19.882 C 2.214 19.361 2.001 18.727 2 18.075 L 2 14 C 1.998 13.596 2.078 13.195 2.236 12.823 C 2.395 12.451 2.627 12.116 2.92 11.837 C 3.378 11.4 3.962 11.118 4.589 11.031 C 4.992 12.03 5.592 12.938 6.354 13.7 L 9.921 17.153 C 10.478 17.699 11.228 18.005 12.008 18.005 C 12.788 18.005 13.538 17.699 14.095 17.153 L 17.658 13.69 C 18.456 12.889 19.074 11.927 19.471 10.869 L 20.008 11.047 C 20.59 11.256 21.094 11.639 21.451 12.145 C 21.807 12.65 21.999 13.253 22 13.872 Z"
        fill="none"
        stroke="#000000"/>
</svg>
